<?xml version="1.0" standalone="no"?>
<!DOCTYPE svg PUBLIC "-//W3C//DTD SVG 20010904//EN"
 "http://www.w3.org/TR/2001/REC-SVG-20010904/DTD/svg10.dtd">
<svg version="1.0" xmlns="http://www.w3.org/2000/svg"
 width="512.000000pt" height="512.000000pt" viewBox="0 0 512.000000 512.000000"
 preserveAspectRatio="xMidYMid meet">

<g transform="translate(0.000000,512.000000) scale(0.100000,-0.100000)"
fill="#000000" stroke="none">
<path d="M2360 4550 c-743 -78 -1382 -550 -1676 -1237 -161 -377 -202 -802
-119 -1211 124 -606 527 -1131 1080 -1409 573 -288 1235 -293 1810 -14 540
263 937 752 1086 1337 77 306 80 658 8 967 -189 806 -856 1426 -1674 1552
-122 19 -399 27 -515 15z m266 -810 c15 -6 87 -70 158 -143 72 -73 292 -294
488 -492 311 -314 358 -365 368 -402 19 -73 3 -106 -102 -209 -51 -51 -103
-97 -115 -103 -27 -14 -83 -14 -120 -1 -15 6 -121 104 -235 218 l-207 206 -3
-720 c-3 -801 1 -750 -71 -794 -29 -18 -51 -20 -222 -20 -214 0 -243 7 -277
71 -17 32 -18 75 -18 749 l0 715 -202 -202 c-112 -110 -217 -208 -235 -217
-41 -20 -96 -20 -138 0 -41 19 -192 174 -205 210 -16 40 -12 91 9 132 23 44
953 974 996 996 35 18 92 21 131 6z"/>
</g>
</svg>
