<?xml version="1.0" standalone="no"?>
<!DOCTYPE svg PUBLIC "-//W3C//DTD SVG 20010904//EN"
 "http://www.w3.org/TR/2001/REC-SVG-20010904/DTD/svg10.dtd">
<svg version="1.0" xmlns="http://www.w3.org/2000/svg"
 width="512.000000pt" height="512.000000pt" viewBox="0 0 512.000000 512.000000"
 preserveAspectRatio="xMidYMid meet">

<g transform="translate(0.000000,512.000000) scale(0.100000,-0.100000)"
fill="#000000" stroke="none">
<path d="M2365 4640 c-863 -88 -1574 -700 -1786 -1536 -77 -306 -80 -658 -8
-967 122 -521 455 -986 907 -1266 1067 -662 2464 -220 2958 936 161 377 202
802 119 1211 -124 606 -527 1131 -1080 1409 -199 100 -399 164 -616 198 -129
19 -375 27 -494 15z m414 -818 c19 -10 43 -34 53 -53 17 -32 18 -75 18 -749
l0 -715 203 202 c111 110 216 208 234 217 41 20 96 20 138 0 41 -19 192 -174
205 -210 15 -40 12 -91 -9 -132 -11 -20 -237 -254 -503 -519 -522 -520 -503
-505 -594 -490 -45 7 -84 40 -219 179 -60 62 -268 273 -461 468 -307 310 -354
360 -364 398 -19 72 -3 105 102 208 51 51 103 97 115 103 27 14 83 14 120 1
15 -6 121 -104 235 -218 l207 -206 3 720 c3 801 -1 750 71 794 29 18 51 20
222 20 165 0 195 -2 224 -18z"/>
</g>
</svg>
