<?xml version="1.0" standalone="no"?>
<!DOCTYPE svg PUBLIC "-//W3C//DTD SVG 20010904//EN"
 "http://www.w3.org/TR/2001/REC-SVG-20010904/DTD/svg10.dtd">
<svg version="1.0" xmlns="http://www.w3.org/2000/svg"
 width="5000.000000pt" height="5000.000000pt" viewBox="0 0 5000.000000 5000.000000"
 preserveAspectRatio="xMidYMid meet">

<g transform="translate(0.000000,5000.000000) scale(0.100000,-0.100000)"
fill="#000000" stroke="none">
<path d="M24750 36063 c-160 -21 -591 -152 -829 -252 -69 -29 -226 -101 -350
-161 -355 -170 -639 -284 -1155 -462 -143 -49 -282 -101 -310 -115 -223 -112
-401 -304 -486 -525 -16 -42 -52 -159 -79 -260 -28 -101 -93 -329 -146 -508
-183 -620 -200 -711 -200 -1075 0 -293 12 -400 72 -639 51 -205 85 -295 298
-785 l193 -446 -62 -41 c-205 -138 -286 -315 -273 -594 10 -202 61 -498 148
-860 76 -317 114 -419 204 -545 109 -154 244 -235 428 -255 109 -12 133 -23
146 -64 6 -17 24 -141 41 -276 59 -462 101 -675 195 -985 79 -262 101 -365
129 -605 53 -449 64 -653 47 -870 -36 -456 -186 -758 -428 -866 -29 -13 -132
-46 -230 -75 -639 -183 -1298 -436 -1830 -703 -227 -113 -550 -267 -828 -393
-354 -162 -542 -258 -1025 -526 -305 -169 -453 -261 -625 -389 -942 -703
-1530 -1738 -1874 -3298 -94 -423 -243 -1303 -406 -2389 -60 -396 -64 -422
-160 -981 -71 -411 -106 -648 -129 -870 -9 -80 -25 -233 -36 -340 -12 -107
-54 -445 -95 -750 -82 -617 -117 -923 -170 -1485 -46 -496 -69 -724 -105
-1035 -17 -140 -30 -267 -30 -282 0 -30 29 -53 297 -244 1035 -736 2089 -1326
3292 -1840 134 -58 266 -113 295 -123 28 -11 157 -59 286 -109 1513 -576 3136
-934 4800 -1057 298 -22 2182 -22 2480 0 1660 123 3198 460 4775 1047 236 87
280 104 360 139 22 9 126 53 230 96 341 143 623 274 1015 469 909 455 1704
942 2533 1552 87 64 87 64 87 109 0 79 -40 516 -95 1043 -30 283 -59 569 -65
635 -6 66 -35 365 -65 665 -86 871 -94 961 -125 1535 -56 1038 -191 2396 -350
3531 -111 795 -268 1474 -500 2174 -170 513 -285 762 -506 1095 -379 573 -848
964 -1696 1416 -623 333 -1383 618 -2168 814 -356 89 -1359 378 -1479 426
-230 92 -404 255 -516 484 -86 175 -136 343 -154 520 -8 76 13 974 39 1645 16
416 49 652 125 888 19 59 41 141 51 182 22 102 32 112 91 94 99 -30 215 -7
322 64 85 56 240 216 306 317 124 188 227 416 279 619 80 306 95 684 35 912
-44 171 -154 327 -287 404 l-60 36 80 124 c155 245 356 685 457 1003 163 512
211 1051 131 1448 -22 107 -77 275 -117 353 -90 180 -268 379 -438 490 -49 33
-108 71 -129 85 -58 38 -148 130 -193 197 -22 33 -87 142 -143 244 -150 270
-229 368 -375 467 -177 119 -332 166 -715 213 -497 62 -760 127 -1085 267
-556 240 -667 272 -935 278 -96 2 -191 1 -210 -2z m1942 -2804 c304 -33 537
-150 689 -348 103 -133 177 -314 255 -618 118 -464 161 -963 150 -1743 -9
-640 -26 -1037 -67 -1520 -38 -463 -108 -764 -314 -1360 -278 -804 -562 -1227
-1035 -1542 -574 -382 -1429 -487 -2096 -257 -244 84 -451 192 -746 388 -197
132 -303 216 -421 336 -224 226 -381 496 -468 805 -68 240 -250 1457 -294
1960 -86 999 -7 1889 240 2704 131 431 376 686 768 800 157 46 868 157 1247
195 107 11 326 27 485 36 312 16 414 29 801 100 390 72 586 88 806 64z m1737
-2524 c73 -37 176 -196 219 -336 61 -197 47 -543 -33 -861 -93 -365 -281 -662
-517 -815 -112 -73 -208 -90 -274 -46 -32 20 -35 45 -19 152 8 53 19 222 25
376 11 312 28 465 65 609 37 143 108 333 184 491 68 142 206 381 244 423 24
26 65 29 106 7z m-6615 -17 c14 -22 151 -371 328 -832 l79 -208 10 -157 c12
-201 34 -410 64 -638 30 -218 31 -251 8 -260 -34 -13 -176 16 -251 52 -96 46
-202 150 -254 250 -104 201 -259 900 -284 1285 -15 217 51 401 175 491 63 45
103 51 125 17z m5637 -3444 c0 -55 -10 -308 -22 -564 -12 -256 -22 -595 -23
-755 -1 -268 1 -298 22 -395 78 -356 228 -613 460 -787 100 -76 204 -128 379
-193 80 -29 154 -63 169 -77 23 -21 26 -30 21 -65 -7 -52 -104 -251 -196 -403
-220 -362 -501 -650 -843 -864 -134 -84 -527 -293 -690 -368 -247 -112 -489
-184 -718 -213 -107 -13 -437 -13 -555 0 -535 60 -1285 301 -1917 616 -530
264 -946 642 -1273 1156 -132 206 -132 211 -23 277 110 67 166 109 242 181
257 243 376 589 376 1089 0 237 -46 726 -75 810 -13 36 -14 46 -3 52 20 13 25
11 46 -23 31 -51 199 -230 313 -335 339 -309 738 -533 1199 -673 509 -154
1016 -139 1583 46 335 110 541 233 786 469 198 191 363 415 502 680 48 90 175
373 203 449 6 18 8 18 22 4 12 -12 16 -38 15 -114z"/>
</g>
</svg>
