<?xml version="1.0" standalone="no"?>
<!DOCTYPE svg PUBLIC "-//W3C//DTD SVG 20010904//EN"
 "http://www.w3.org/TR/2001/REC-SVG-20010904/DTD/svg10.dtd">
<svg version="1.0" xmlns="http://www.w3.org/2000/svg"
 width="64.000000pt" height="64.000000pt" viewBox="0 0 64.000000 64.000000"
 preserveAspectRatio="xMidYMid meet">

<g transform="translate(0.000000,64.000000) scale(0.100000,-0.100000)"
fill="#000000" stroke="none">
<path d="M66 504 c-9 -8 -16 -19 -16 -24 0 -5 7 -16 16 -24 23 -24 485 -24
508 0 19 18 19 20 6 45 -10 18 -24 19 -255 19 -208 0 -246 -2 -259 -16z"/>
<path d="M66 344 c-9 -8 -16 -19 -16 -24 0 -5 7 -16 16 -24 23 -24 485 -24
508 0 19 18 19 20 6 45 -10 18 -24 19 -255 19 -208 0 -246 -2 -259 -16z"/>
<path d="M66 184 c-9 -8 -16 -19 -16 -24 0 -5 7 -16 16 -24 23 -24 485 -24
508 0 19 18 19 20 6 45 -10 18 -24 19 -255 19 -208 0 -246 -2 -259 -16z"/>
</g>
</svg>
